<mxfile host="app.diagrams.net" modified="2023-06-08T01:32:56.242Z" agent="Mozilla/5.0 (Windows NT 10.0; Win64; x64) AppleWebKit/537.36 (KHTML, like Gecko) Chrome/114.0.0.0 Safari/537.36" etag="dXEP535edOCfgBZColu0" version="21.3.7" type="device">
  <diagram name="페이지-1" id="oTIGeqZYAFc3HsjeFz0-">
    <mxGraphModel dx="1434" dy="788" grid="1" gridSize="10" guides="1" tooltips="1" connect="1" arrows="1" fold="1" page="1" pageScale="1" pageWidth="4681" pageHeight="3300" math="0" shadow="0">
      <root>
        <mxCell id="0" />
        <mxCell id="1" parent="0" />
        <mxCell id="y2BStkZfG8ziNjRMGb-y-17" style="edgeStyle=orthogonalEdgeStyle;rounded=0;orthogonalLoop=1;jettySize=auto;html=1;entryX=0;entryY=0.5;entryDx=0;entryDy=0;" edge="1" parent="1" source="y2BStkZfG8ziNjRMGb-y-1" target="y2BStkZfG8ziNjRMGb-y-2">
          <mxGeometry relative="1" as="geometry" />
        </mxCell>
        <mxCell id="y2BStkZfG8ziNjRMGb-y-1" value="Actor" style="shape=umlActor;verticalLabelPosition=bottom;verticalAlign=top;html=1;outlineConnect=0;" vertex="1" parent="1">
          <mxGeometry x="310" y="200" width="80" height="130" as="geometry" />
        </mxCell>
        <mxCell id="y2BStkZfG8ziNjRMGb-y-18" style="edgeStyle=orthogonalEdgeStyle;rounded=0;orthogonalLoop=1;jettySize=auto;html=1;entryX=0;entryY=0.5;entryDx=0;entryDy=0;" edge="1" parent="1" source="y2BStkZfG8ziNjRMGb-y-2" target="y2BStkZfG8ziNjRMGb-y-16">
          <mxGeometry relative="1" as="geometry" />
        </mxCell>
        <mxCell id="y2BStkZfG8ziNjRMGb-y-2" value="시작화면" style="ellipse;whiteSpace=wrap;html=1;" vertex="1" parent="1">
          <mxGeometry x="560" y="160" width="140" height="80" as="geometry" />
        </mxCell>
        <mxCell id="y2BStkZfG8ziNjRMGb-y-4" value="최신영화" style="swimlane;fontStyle=0;childLayout=stackLayout;horizontal=1;startSize=30;horizontalStack=0;resizeParent=1;resizeParentMax=0;resizeLast=0;collapsible=1;marginBottom=0;whiteSpace=wrap;html=1;" vertex="1" parent="1">
          <mxGeometry x="560" y="280" width="170" height="180" as="geometry" />
        </mxCell>
        <mxCell id="y2BStkZfG8ziNjRMGb-y-5" value="영화명" style="text;strokeColor=none;fillColor=none;align=left;verticalAlign=middle;spacingLeft=4;spacingRight=4;overflow=hidden;points=[[0,0.5],[1,0.5]];portConstraint=eastwest;rotatable=0;whiteSpace=wrap;html=1;" vertex="1" parent="y2BStkZfG8ziNjRMGb-y-4">
          <mxGeometry y="30" width="170" height="30" as="geometry" />
        </mxCell>
        <mxCell id="y2BStkZfG8ziNjRMGb-y-6" value="감독" style="text;strokeColor=none;fillColor=none;align=left;verticalAlign=middle;spacingLeft=4;spacingRight=4;overflow=hidden;points=[[0,0.5],[1,0.5]];portConstraint=eastwest;rotatable=0;whiteSpace=wrap;html=1;" vertex="1" parent="y2BStkZfG8ziNjRMGb-y-4">
          <mxGeometry y="60" width="170" height="30" as="geometry" />
        </mxCell>
        <mxCell id="y2BStkZfG8ziNjRMGb-y-7" value="출연진" style="text;strokeColor=none;fillColor=none;align=left;verticalAlign=middle;spacingLeft=4;spacingRight=4;overflow=hidden;points=[[0,0.5],[1,0.5]];portConstraint=eastwest;rotatable=0;whiteSpace=wrap;html=1;" vertex="1" parent="y2BStkZfG8ziNjRMGb-y-4">
          <mxGeometry y="90" width="170" height="30" as="geometry" />
        </mxCell>
        <mxCell id="y2BStkZfG8ziNjRMGb-y-8" value="개봉일자" style="text;strokeColor=none;fillColor=none;align=left;verticalAlign=middle;spacingLeft=4;spacingRight=4;overflow=hidden;points=[[0,0.5],[1,0.5]];portConstraint=eastwest;rotatable=0;whiteSpace=wrap;html=1;" vertex="1" parent="y2BStkZfG8ziNjRMGb-y-4">
          <mxGeometry y="120" width="170" height="30" as="geometry" />
        </mxCell>
        <mxCell id="y2BStkZfG8ziNjRMGb-y-9" value="영화설명" style="text;strokeColor=none;fillColor=none;align=left;verticalAlign=middle;spacingLeft=4;spacingRight=4;overflow=hidden;points=[[0,0.5],[1,0.5]];portConstraint=eastwest;rotatable=0;whiteSpace=wrap;html=1;" vertex="1" parent="y2BStkZfG8ziNjRMGb-y-4">
          <mxGeometry y="150" width="170" height="30" as="geometry" />
        </mxCell>
        <mxCell id="y2BStkZfG8ziNjRMGb-y-10" value="영화검색" style="swimlane;fontStyle=0;childLayout=stackLayout;horizontal=1;startSize=30;horizontalStack=0;resizeParent=1;resizeParentMax=0;resizeLast=0;collapsible=1;marginBottom=0;whiteSpace=wrap;html=1;" vertex="1" parent="1">
          <mxGeometry x="820" y="280" width="170" height="180" as="geometry" />
        </mxCell>
        <mxCell id="y2BStkZfG8ziNjRMGb-y-11" value="제목으로 검색하기" style="text;strokeColor=none;fillColor=none;align=left;verticalAlign=middle;spacingLeft=4;spacingRight=4;overflow=hidden;points=[[0,0.5],[1,0.5]];portConstraint=eastwest;rotatable=0;whiteSpace=wrap;html=1;" vertex="1" parent="y2BStkZfG8ziNjRMGb-y-10">
          <mxGeometry y="30" width="170" height="30" as="geometry" />
        </mxCell>
        <mxCell id="y2BStkZfG8ziNjRMGb-y-12" value="장르로 검색하기" style="text;strokeColor=none;fillColor=none;align=left;verticalAlign=middle;spacingLeft=4;spacingRight=4;overflow=hidden;points=[[0,0.5],[1,0.5]];portConstraint=eastwest;rotatable=0;whiteSpace=wrap;html=1;" vertex="1" parent="y2BStkZfG8ziNjRMGb-y-10">
          <mxGeometry y="60" width="170" height="30" as="geometry" />
        </mxCell>
        <mxCell id="y2BStkZfG8ziNjRMGb-y-13" value="감독으로 검색하기" style="text;strokeColor=none;fillColor=none;align=left;verticalAlign=middle;spacingLeft=4;spacingRight=4;overflow=hidden;points=[[0,0.5],[1,0.5]];portConstraint=eastwest;rotatable=0;whiteSpace=wrap;html=1;" vertex="1" parent="y2BStkZfG8ziNjRMGb-y-10">
          <mxGeometry y="90" width="170" height="30" as="geometry" />
        </mxCell>
        <mxCell id="y2BStkZfG8ziNjRMGb-y-14" value="주연으로 검색하기" style="text;strokeColor=none;fillColor=none;align=left;verticalAlign=middle;spacingLeft=4;spacingRight=4;overflow=hidden;points=[[0,0.5],[1,0.5]];portConstraint=eastwest;rotatable=0;whiteSpace=wrap;html=1;" vertex="1" parent="y2BStkZfG8ziNjRMGb-y-10">
          <mxGeometry y="120" width="170" height="30" as="geometry" />
        </mxCell>
        <mxCell id="y2BStkZfG8ziNjRMGb-y-15" value="내용(키워드)로 검색하기" style="text;strokeColor=none;fillColor=none;align=left;verticalAlign=middle;spacingLeft=4;spacingRight=4;overflow=hidden;points=[[0,0.5],[1,0.5]];portConstraint=eastwest;rotatable=0;whiteSpace=wrap;html=1;" vertex="1" parent="y2BStkZfG8ziNjRMGb-y-10">
          <mxGeometry y="150" width="170" height="30" as="geometry" />
        </mxCell>
        <mxCell id="y2BStkZfG8ziNjRMGb-y-28" style="edgeStyle=orthogonalEdgeStyle;rounded=0;orthogonalLoop=1;jettySize=auto;html=1;entryX=0;entryY=0.5;entryDx=0;entryDy=0;" edge="1" parent="1" source="y2BStkZfG8ziNjRMGb-y-16" target="y2BStkZfG8ziNjRMGb-y-19">
          <mxGeometry relative="1" as="geometry" />
        </mxCell>
        <mxCell id="y2BStkZfG8ziNjRMGb-y-16" value="영화검색" style="ellipse;whiteSpace=wrap;html=1;" vertex="1" parent="1">
          <mxGeometry x="820" y="160" width="140" height="80" as="geometry" />
        </mxCell>
        <mxCell id="y2BStkZfG8ziNjRMGb-y-24" style="edgeStyle=orthogonalEdgeStyle;rounded=0;orthogonalLoop=1;jettySize=auto;html=1;entryX=0;entryY=0.5;entryDx=0;entryDy=0;" edge="1" parent="1" source="y2BStkZfG8ziNjRMGb-y-19" target="y2BStkZfG8ziNjRMGb-y-20">
          <mxGeometry relative="1" as="geometry" />
        </mxCell>
        <mxCell id="y2BStkZfG8ziNjRMGb-y-25" style="edgeStyle=orthogonalEdgeStyle;rounded=0;orthogonalLoop=1;jettySize=auto;html=1;entryX=0;entryY=0.5;entryDx=0;entryDy=0;" edge="1" parent="1" source="y2BStkZfG8ziNjRMGb-y-19" target="y2BStkZfG8ziNjRMGb-y-21">
          <mxGeometry relative="1" as="geometry" />
        </mxCell>
        <mxCell id="y2BStkZfG8ziNjRMGb-y-26" style="edgeStyle=orthogonalEdgeStyle;rounded=0;orthogonalLoop=1;jettySize=auto;html=1;entryX=0;entryY=0.5;entryDx=0;entryDy=0;" edge="1" parent="1" source="y2BStkZfG8ziNjRMGb-y-19" target="y2BStkZfG8ziNjRMGb-y-22">
          <mxGeometry relative="1" as="geometry" />
        </mxCell>
        <mxCell id="y2BStkZfG8ziNjRMGb-y-27" style="edgeStyle=orthogonalEdgeStyle;rounded=0;orthogonalLoop=1;jettySize=auto;html=1;entryX=0;entryY=0.5;entryDx=0;entryDy=0;" edge="1" parent="1" source="y2BStkZfG8ziNjRMGb-y-19" target="y2BStkZfG8ziNjRMGb-y-23">
          <mxGeometry relative="1" as="geometry" />
        </mxCell>
        <mxCell id="y2BStkZfG8ziNjRMGb-y-19" value="자세히보기" style="ellipse;whiteSpace=wrap;html=1;" vertex="1" parent="1">
          <mxGeometry x="1060" y="160" width="140" height="80" as="geometry" />
        </mxCell>
        <mxCell id="y2BStkZfG8ziNjRMGb-y-41" style="edgeStyle=orthogonalEdgeStyle;rounded=0;orthogonalLoop=1;jettySize=auto;html=1;entryX=0;entryY=0;entryDx=0;entryDy=60;entryPerimeter=0;" edge="1" parent="1" source="y2BStkZfG8ziNjRMGb-y-20" target="y2BStkZfG8ziNjRMGb-y-40">
          <mxGeometry relative="1" as="geometry" />
        </mxCell>
        <mxCell id="y2BStkZfG8ziNjRMGb-y-20" value="영화평남기기" style="ellipse;whiteSpace=wrap;html=1;" vertex="1" parent="1">
          <mxGeometry x="1250" y="160" width="140" height="80" as="geometry" />
        </mxCell>
        <mxCell id="y2BStkZfG8ziNjRMGb-y-32" style="edgeStyle=orthogonalEdgeStyle;rounded=0;orthogonalLoop=1;jettySize=auto;html=1;entryX=0;entryY=0.5;entryDx=0;entryDy=0;" edge="1" parent="1" source="y2BStkZfG8ziNjRMGb-y-21" target="y2BStkZfG8ziNjRMGb-y-29">
          <mxGeometry relative="1" as="geometry" />
        </mxCell>
        <mxCell id="y2BStkZfG8ziNjRMGb-y-21" value="영화예매하기" style="ellipse;whiteSpace=wrap;html=1;" vertex="1" parent="1">
          <mxGeometry x="1250" y="270" width="140" height="80" as="geometry" />
        </mxCell>
        <mxCell id="y2BStkZfG8ziNjRMGb-y-33" style="edgeStyle=orthogonalEdgeStyle;rounded=0;orthogonalLoop=1;jettySize=auto;html=1;entryX=0;entryY=0.5;entryDx=0;entryDy=0;" edge="1" parent="1" source="y2BStkZfG8ziNjRMGb-y-22" target="y2BStkZfG8ziNjRMGb-y-31">
          <mxGeometry relative="1" as="geometry" />
        </mxCell>
        <mxCell id="y2BStkZfG8ziNjRMGb-y-22" value="OTT 링크 바로가기" style="ellipse;whiteSpace=wrap;html=1;" vertex="1" parent="1">
          <mxGeometry x="1250" y="380" width="140" height="80" as="geometry" />
        </mxCell>
        <mxCell id="y2BStkZfG8ziNjRMGb-y-23" value="공유하기" style="ellipse;whiteSpace=wrap;html=1;" vertex="1" parent="1">
          <mxGeometry x="1250" y="490" width="140" height="80" as="geometry" />
        </mxCell>
        <mxCell id="y2BStkZfG8ziNjRMGb-y-29" value="제휴영화관 링크" style="ellipse;whiteSpace=wrap;html=1;" vertex="1" parent="1">
          <mxGeometry x="1460" y="270" width="140" height="80" as="geometry" />
        </mxCell>
        <mxCell id="y2BStkZfG8ziNjRMGb-y-31" value="OTT 연결" style="ellipse;whiteSpace=wrap;html=1;" vertex="1" parent="1">
          <mxGeometry x="1460" y="380" width="140" height="80" as="geometry" />
        </mxCell>
        <mxCell id="y2BStkZfG8ziNjRMGb-y-34" value="공유하기" style="swimlane;fontStyle=0;childLayout=stackLayout;horizontal=1;startSize=30;horizontalStack=0;resizeParent=1;resizeParentMax=0;resizeLast=0;collapsible=1;marginBottom=0;whiteSpace=wrap;html=1;" vertex="1" parent="1">
          <mxGeometry x="1410" y="500" width="170" height="120" as="geometry" />
        </mxCell>
        <mxCell id="y2BStkZfG8ziNjRMGb-y-35" value="SNS 링크보내기" style="text;strokeColor=none;fillColor=none;align=left;verticalAlign=middle;spacingLeft=4;spacingRight=4;overflow=hidden;points=[[0,0.5],[1,0.5]];portConstraint=eastwest;rotatable=0;whiteSpace=wrap;html=1;" vertex="1" parent="y2BStkZfG8ziNjRMGb-y-34">
          <mxGeometry y="30" width="170" height="30" as="geometry" />
        </mxCell>
        <mxCell id="y2BStkZfG8ziNjRMGb-y-36" value="카카오 링크보내기" style="text;strokeColor=none;fillColor=none;align=left;verticalAlign=middle;spacingLeft=4;spacingRight=4;overflow=hidden;points=[[0,0.5],[1,0.5]];portConstraint=eastwest;rotatable=0;whiteSpace=wrap;html=1;" vertex="1" parent="y2BStkZfG8ziNjRMGb-y-34">
          <mxGeometry y="60" width="170" height="30" as="geometry" />
        </mxCell>
        <mxCell id="y2BStkZfG8ziNjRMGb-y-37" value="FaceBook 공유하기" style="text;strokeColor=none;fillColor=none;align=left;verticalAlign=middle;spacingLeft=4;spacingRight=4;overflow=hidden;points=[[0,0.5],[1,0.5]];portConstraint=eastwest;rotatable=0;whiteSpace=wrap;html=1;" vertex="1" parent="y2BStkZfG8ziNjRMGb-y-34">
          <mxGeometry y="90" width="170" height="30" as="geometry" />
        </mxCell>
        <mxCell id="y2BStkZfG8ziNjRMGb-y-40" value="" style="shape=cylinder3;whiteSpace=wrap;html=1;boundedLbl=1;backgroundOutline=1;size=15;" vertex="1" parent="1">
          <mxGeometry x="1490" y="140" width="90" height="90" as="geometry" />
        </mxCell>
      </root>
    </mxGraphModel>
  </diagram>
</mxfile>
